<?xml version="1.0" encoding="utf-8"?>
<!-- Generator: Adobe Illustrator 16.0.0, SVG Export Plug-In . SVG Version: 6.00 Build 0)  -->
<!DOCTYPE svg PUBLIC "-//W3C//DTD SVG 1.1//EN" "http://www.w3.org/Graphics/SVG/1.1/DTD/svg11.dtd">
<svg version="1.1" id="Layer_1" xmlns="http://www.w3.org/2000/svg" xmlns:xlink="http://www.w3.org/1999/xlink" x="0px" y="0px"
	 width="206px" height="96.877px" viewBox="0 -30.545 206 96.877" enable-background="new 0 -30.545 206 96.877"
	 xml:space="preserve">
<g>
	
		<path fill="none" stroke="#010101" stroke-width="3.8771" stroke-linecap="round" stroke-linejoin="round" stroke-miterlimit="10" d="
		M70.479,8.514l5.792-4.563c2.793-2.199,7.141-1.949,9.664,0.555l2.055,2.039c2.522,2.505,6.671,2.525,9.22,0.048l2.194-2.134
		c2.548-2.477,6.762-2.526,9.366-0.107l2.53,2.348c2.604,2.419,6.765,2.316,9.245-0.228l1.85-1.894
		c2.48-2.544,6.575-2.577,9.099-0.073l2.053,2.039c2.522,2.505,6.672,2.525,9.22,0.048l2.194-2.134
		c2.548-2.477,6.757-2.52,9.354-0.095l2.491,2.325c2.597,2.424,6.754,2.328,9.235-0.216l1.848-1.895
		c2.481-2.543,6.823-2.861,9.651-0.707l6.087,4.641"/>
</g>
<g>
	
		<path fill="none" stroke="#010101" stroke-width="3.8771" stroke-linecap="round" stroke-linejoin="round" stroke-miterlimit="10" d="
		M24.373,37.346l5.792-4.562c2.793-2.198,7.14-1.948,9.665,0.556l2.053,2.04c2.523,2.503,6.671,2.523,9.22,0.046l2.194-2.134
		c2.549-2.479,6.764-2.526,9.367-0.106l2.529,2.348c2.605,2.418,6.766,2.317,9.248-0.227l1.847-1.894
		c2.481-2.545,6.575-2.577,9.099-0.073l2.054,2.038c2.522,2.505,6.671,2.524,9.22,0.047l2.193-2.133
		c2.549-2.479,6.758-2.521,9.354-0.096l2.492,2.324c2.597,2.426,6.753,2.33,9.234-0.214l1.85-1.896
		c2.48-2.543,6.822-2.86,9.649-0.707l6.088,4.642"/>
</g>
<polygon fill="none" stroke="#010101" stroke-width="2" stroke-linecap="round" stroke-linejoin="round" stroke-miterlimit="10" points="
	-150.532,101 -128.334,-5.3 -106.136,101 "/>
<path fill="none" stroke="#010101" stroke-width="2" stroke-linecap="round" stroke-linejoin="round" stroke-miterlimit="10" d="
	M-139.888-44.723c-4.467,3.306-7.296,8.104-7.296,13.446c0,5.343,2.829,10.14,7.296,13.446"/>
<path fill="none" stroke="#010101" stroke-width="3" stroke-linecap="round" stroke-linejoin="round" stroke-miterlimit="10" d="
	M-171.366-64.262c-9.225,8.289-15.066,20.32-15.066,33.716c0,13.395,5.841,25.426,15.066,33.716"/>
<path fill="none" stroke="#010101" stroke-width="2.5" stroke-linecap="round" stroke-linejoin="round" stroke-miterlimit="10" d="
	M-156.759-53.939c-6.401,5.752-10.453,14.1-10.453,23.394s4.052,17.642,10.453,23.394"/>
<path fill="none" stroke="#010101" stroke-width="2" stroke-linecap="round" stroke-linejoin="round" stroke-miterlimit="10" d="
	M-115.432-44.723c4.467,3.306,7.296,8.104,7.296,13.446c0,5.343-2.829,10.14-7.296,13.446"/>
<path fill="none" stroke="#010101" stroke-width="3" stroke-linecap="round" stroke-linejoin="round" stroke-miterlimit="10" d="
	M-83.954-64.262c9.225,8.289,15.066,20.32,15.066,33.716c0,13.395-5.841,25.426-15.066,33.716"/>
<path fill="none" stroke="#010101" stroke-width="2.5" stroke-linecap="round" stroke-linejoin="round" stroke-miterlimit="10" d="
	M-98.56-53.939c6.401,5.752,10.453,14.1,10.453,23.394S-92.159-12.904-98.56-7.152"/>
</svg>
