<?xml version="1.0" encoding="utf-8"?>
<!-- Generator: Adobe Illustrator 16.0.0, SVG Export Plug-In . SVG Version: 6.00 Build 0)  -->
<!DOCTYPE svg PUBLIC "-//W3C//DTD SVG 1.1//EN" "http://www.w3.org/Graphics/SVG/1.1/DTD/svg11.dtd">
<svg version="1.1" id="Layer_1" xmlns="http://www.w3.org/2000/svg" xmlns:xlink="http://www.w3.org/1999/xlink" x="0px" y="0px"
	 width="143px" height="188.334px" viewBox="0 0 143 188.334" enable-background="new 0 0 143 188.334" xml:space="preserve">
<g>
	<path fill="none" stroke="#010101" stroke-width="3" stroke-linecap="round" stroke-linejoin="round" stroke-miterlimit="10" d="
		M227.806,122.156l4.482-3.529c2.161-1.701,5.525-1.508,7.478,0.43l1.589,1.578c1.952,1.938,5.162,1.953,7.134,0.037l1.698-1.652
		c1.972-1.918,5.233-1.955,7.248-0.084l1.957,1.818c2.016,1.871,5.235,1.793,7.155-0.176l1.43-1.465
		c1.92-1.969,5.088-1.994,7.04-0.057l1.589,1.578c1.952,1.938,5.162,1.953,7.134,0.037l1.698-1.652
		c1.971-1.918,5.229-1.951,7.238-0.074l1.928,1.799c2.01,1.877,5.225,1.803,7.146-0.166l1.43-1.467
		c1.92-1.967,5.279-2.213,7.467-0.547l4.711,3.592"/>
</g>
<g>
	<path fill="none" stroke="#010101" stroke-width="3" stroke-linecap="round" stroke-linejoin="round" stroke-miterlimit="10" d="
		M192.13,144.467l4.482-3.529c2.161-1.701,5.525-1.508,7.478,0.43l1.589,1.578c1.952,1.938,5.162,1.953,7.134,0.037l1.698-1.652
		c1.972-1.918,5.233-1.955,7.248-0.082l1.957,1.816c2.016,1.871,5.235,1.793,7.155-0.176l1.43-1.465
		c1.92-1.969,5.088-1.994,7.04-0.057l1.589,1.578c1.952,1.938,5.162,1.953,7.134,0.037l1.697-1.652
		c1.972-1.916,5.229-1.949,7.239-0.074l1.927,1.799c2.01,1.877,5.226,1.803,7.146-0.166l1.43-1.465
		c1.92-1.969,5.28-2.215,7.468-0.547l4.71,3.59"/>
</g>
<polygon fill="none" stroke="#010101" stroke-width="2" stroke-linecap="round" stroke-linejoin="round" stroke-miterlimit="10" points="
	49.468,177 71.666,70.7 93.864,177 "/>
<path fill="none" stroke="#010101" stroke-width="2" stroke-linecap="round" stroke-linejoin="round" stroke-miterlimit="10" d="
	M60.112,31.277c-4.467,3.306-7.296,8.104-7.296,13.446c0,5.343,2.829,10.14,7.296,13.446"/>
<path fill="none" stroke="#010101" stroke-width="3" stroke-linecap="round" stroke-linejoin="round" stroke-miterlimit="10" d="
	M28.634,11.738c-9.225,8.289-15.066,20.32-15.066,33.716c0,13.395,5.841,25.426,15.066,33.716"/>
<path fill="none" stroke="#010101" stroke-width="2.5" stroke-linecap="round" stroke-linejoin="round" stroke-miterlimit="10" d="
	M43.241,22.061c-6.401,5.752-10.453,14.1-10.453,23.394s4.052,17.642,10.453,23.394"/>
<path fill="none" stroke="#010101" stroke-width="2" stroke-linecap="round" stroke-linejoin="round" stroke-miterlimit="10" d="
	M84.568,31.277c4.467,3.306,7.296,8.104,7.296,13.446c0,5.343-2.829,10.14-7.296,13.446"/>
<path fill="none" stroke="#010101" stroke-width="3" stroke-linecap="round" stroke-linejoin="round" stroke-miterlimit="10" d="
	M116.046,11.738c9.225,8.289,15.066,20.32,15.066,33.716c0,13.395-5.841,25.426-15.066,33.716"/>
<path fill="none" stroke="#010101" stroke-width="2.5" stroke-linecap="round" stroke-linejoin="round" stroke-miterlimit="10" d="
	M101.44,22.061c6.401,5.752,10.453,14.1,10.453,23.394s-4.052,17.642-10.453,23.394"/>
</svg>
